<svg width="20" height="19" viewBox="0 0 20 19" fill="none" xmlns="http://www.w3.org/2000/svg">
<path d="M2.5 4.75H4.16667H17.5" stroke="#FF2424" stroke-width="2" stroke-linecap="round" stroke-linejoin="round"/>
<path d="M6.66663 4.75001V3.16668C6.66663 2.74675 6.84222 2.34402 7.15478 2.04709C7.46734 1.75016 7.89127 1.58334 8.33329 1.58334H11.6666C12.1087 1.58334 12.5326 1.75016 12.8451 2.04709C13.1577 2.34402 13.3333 2.74675 13.3333 3.16668V4.75001M15.8333 4.75001V15.8333C15.8333 16.2533 15.6577 16.656 15.3451 16.9529C15.0326 17.2499 14.6087 17.4167 14.1666 17.4167H5.83329C5.39127 17.4167 4.96734 17.2499 4.65478 16.9529C4.34222 16.656 4.16663 16.2533 4.16663 15.8333V4.75001H15.8333Z" stroke="#FF2424" stroke-width="2" stroke-linecap="round" stroke-linejoin="round"/>
</svg>
